HIERARCHY
ROOT Hips
{
	OFFSET 0.000000 0.000000 0.000000
	CHANNELS 6 Xposition Yposition Zposition Zrotation Xrotation Yrotation
	JOINT Spine1
	{
		OFFSET 0.000000 25.547913 0.000016
		CHANNELS 6 Xposition Yposition Zposition Zrotation Xrotation Yrotation
		JOINT Neck
		{
			OFFSET 0.000000 20.367699 0.000015
			CHANNELS 6 Xposition Yposition Zposition Zrotation Xrotation Yrotation
			JOINT Head
			{
				OFFSET 0.000000 12.950657 1.671054
				CHANNELS 6 Xposition Yposition Zposition Zrotation Xrotation Yrotation
				End Site
				{
					OFFSET 0.000000 16.710468 0.000015
				}
			}
		}
		JOINT LeftShoulder
		{
			OFFSET 3.365056 16.445827 -0.441705
			CHANNELS 6 Xposition Yposition Zposition Zrotation Xrotation Yrotation
			JOINT LeftArm
			{
				OFFSET 12.007472 0.000000 0.000000
				CHANNELS 6 Xposition Yposition Zposition Zrotation Xrotation Yrotation
				JOINT LeftForeArm
				{
					OFFSET 23.544727 0.000000 0.000000
					CHANNELS 6 Xposition Yposition Zposition Zrotation Xrotation Yrotation
					JOINT LeftHand
					{
						OFFSET 21.881741 0.000000 0.000000
						CHANNELS 6 Xposition Yposition Zposition Zrotation Xrotation Yrotation
						End Site
						{
							OFFSET 12.532852 0.000000 0.000000
						}
					}
				}
			}
		}
		JOINT RightShoulder
		{
			OFFSET -3.318632 16.445827 -0.441705
			CHANNELS 6 Xposition Yposition Zposition Zrotation Xrotation Yrotation
			JOINT RightArm
			{
				OFFSET -12.007472 0.000000 0.000000
				CHANNELS 6 Xposition Yposition Zposition Zrotation Xrotation Yrotation
				JOINT RightForeArm
				{
					OFFSET -23.544727 0.000000 0.000000
					CHANNELS 6 Xposition Yposition Zposition Zrotation Xrotation Yrotation
					JOINT RightHand
					{
						OFFSET -21.881752 0.000000 0.000000
						CHANNELS 6 Xposition Yposition Zposition Zrotation Xrotation Yrotation
						End Site
						{
							OFFSET -12.532856 0.000000 0.000000
						}
					}
				}
			}
		}
	}
	JOINT LeftUpLeg
	{
		OFFSET 8.355256 0.000000 0.000000
		CHANNELS 6 Xposition Yposition Zposition Zrotation Xrotation Yrotation
		JOINT LeftLeg
		{
			OFFSET 0.000000 -35.139305 -0.000022
			CHANNELS 6 Xposition Yposition Zposition Zrotation Xrotation Yrotation
			JOINT LeftFoot
			{
				OFFSET 0.000000 -36.839561 -0.000022
				CHANNELS 6 Xposition Yposition Zposition Zrotation Xrotation Yrotation
				JOINT LeftToeBase
				{
					OFFSET 0.000000 -5.430923 12.532883
					CHANNELS 6 Xposition Yposition Zposition Zrotation Xrotation Yrotation
					End Site
					{
						OFFSET 0.000000 0.000000 3.342092
					}
				}
			}
		}
	}
	JOINT RightUpLeg
	{
		OFFSET -8.355256 0.000000 0.000000
		CHANNELS 6 Xposition Yposition Zposition Zrotation Xrotation Yrotation
		JOINT RightLeg
		{
			OFFSET 0.000000 -35.139305 -0.000022
			CHANNELS 6 Xposition Yposition Zposition Zrotation Xrotation Yrotation
			JOINT RightFoot
			{
				OFFSET 0.000000 -36.839561 -0.000022
				CHANNELS 6 Xposition Yposition Zposition Zrotation Xrotation Yrotation
				JOINT RightToeBase
				{
					OFFSET 0.000000 -5.430923 12.532883
					CHANNELS 6 Xposition Yposition Zposition Zrotation Xrotation Yrotation
					End Site
					{
						OFFSET 0.000000 0.000000 3.342092
					}
				}
			}
		}
	}
}
MOTION
Frames: 4
Frame Time: 0.016667
1.787268 66.447128 13.178602 2.357477 13.816528 -5.066806 -0.000000 25.547911 0.000023 2.219970 -13.344110 -2.294675 -0.000002 20.367710 0.000017 2.905448 7.893645 4.855214 0.000002 12.950684 1.671052 -5.794734 -1.768644 6.263016 3.365040 16.445820 -0.441709 21.792268 -5.930691 2.796926 12.007475 0.000011 0.000004 -10.092399 -8.946013 -11.454482 23.544737 0.000008 -0.000006 4.359123 -16.169578 -7.689393 21.881756 -0.000009 -0.000003 -10.363829 -17.523240 18.665691 -3.318631 16.445818 -0.441704 -17.211749 0.013795 -6.515184 -12.007474 -0.000006 0.000001 1.487465 25.369363 20.637893 -23.544724 0.000011 -0.000003 -47.106708 -37.696033 81.904261 -21.881775 0.000002 -0.000015 -33.344960 3.164847 5.654979 8.355256 -0.000002 0.000002 29.326268 -26.466449 30.009481 0.000007 -35.139305 -0.000020 -26.123694 42.861028 25.327470 -0.000005 -36.839554 -0.000019 0.315308 -14.276458 21.499907 0.000001 -5.430932 12.532883 -0.000004 0.000002 -0.000002 -8.355257 0.000024 0.000000 -39.911053 -27.976101 -5.596212 0.000008 -35.139313 -0.000017 39.831990 20.311307 -37.649430 0.000007 -36.839577 -0.000026 1.978341 -7.480547 -35.953645 -0.000006 -5.430915 12.532878 0.000000 0.000001 0.000004 
1.783632 66.455963 13.185843 2.341982 13.810918 -5.144590 -0.000000 25.547924 0.000018 2.269681 -13.327449 -2.243013 -0.000002 20.367668 0.000016 2.903974 7.876439 4.869289 -0.000000 12.950673 1.671073 -5.787398 -1.815028 6.273672 3.365041 16.445824 -0.441706 21.789306 -5.938263 2.803047 12.007496 0.000034 -0.000005 -10.098527 -9.139425 -11.405133 23.544735 0.000022 -0.000008 4.336615 -16.203649 -7.637299 21.881739 -0.000001 0.000010 -10.309067 -17.551947 18.667759 -3.318630 16.445822 -0.441706 -17.221079 0.011248 -6.485384 -12.007476 -0.000008 0.000005 1.456740 25.368111 20.620862 -23.544722 0.000010 0.000021 -47.150138 -37.728657 81.842550 -21.881760 0.000022 -0.000022 -33.395107 3.134486 5.601115 8.355256 0.000037 0.000000 29.357826 -26.411068 29.964293 0.000005 -35.139301 -0.000015 -26.179067 42.815194 25.370833 0.000002 -36.839569 -0.000024 0.313582 -14.279720 21.564553 0.000002 -5.430915 12.532869 0.000001 -0.000003 0.000004 -8.355257 0.000039 -0.000003 -39.874672 -27.980896 -5.739837 -0.000008 -35.139301 -0.000022 39.785592 20.375310 -37.497749 0.000005 -36.839546 -0.000019 1.979538 -7.411684 -35.889417 -0.000001 -5.430923 12.532869 -0.000002 -0.000001 -0.000007 
1.778380 66.463875 13.193295 2.311090 13.799627 -5.207134 -0.000000 25.547899 0.000023 2.319802 -13.301439 -2.189418 -0.000001 20.367714 0.000008 2.929513 7.848963 4.876944 0.000001 12.950652 1.671067 -5.792430 -1.859808 6.284377 3.365051 16.445843 -0.441705 21.783874 -5.944086 2.792072 12.007471 0.000028 -0.000006 -10.073576 -9.247868 -11.336995 23.544733 0.000002 -0.000011 4.347685 -16.213172 -7.607546 21.881729 -0.000009 -0.000005 -10.317620 -17.562366 18.658883 -3.318629 16.445841 -0.441701 -17.228035 0.028984 -6.465090 -12.007472 0.000002 0.000005 1.482875 25.243356 20.577553 -23.544727 0.000008 0.000011 -47.063343 -37.681303 81.924055 -21.881765 0.000016 -0.000020 -33.421321 3.162791 5.595979 8.355256 -0.000005 0.000002 29.386175 -26.364836 29.999290 -0.000000 -35.139297 -0.000030 -26.123184 42.816803 25.370055 -0.000006 -36.839554 -0.000028 0.288703 -14.294620 21.548540 -0.000009 -5.430909 12.532883 0.000001 0.000001 -0.000000 -8.355257 -0.000012 -0.000001 -39.824712 -27.980633 -5.964712 0.000018 -35.139297 -0.000023 39.714022 20.495996 -37.319775 0.000005 -36.839539 -0.000020 1.964221 -7.316155 -35.824062 -0.000003 -5.430915 12.532874 -0.000000 -0.000002 -0.000006 
1.775996 66.466995 13.201530 2.303691 13.780366 -5.272684 0.000000 25.547909 0.000020 2.346174 -13.265191 -2.133262 -0.000000 20.367741 0.000014 2.939764 7.820042 4.888402 -0.000000 12.950665 1.671058 -5.773041 -1.915546 6.292591 3.365051 16.445862 -0.441708 21.768947 -5.956288 2.782535 12.007479 0.000023 0.000005 -10.026180 -9.335246 -11.261947 23.544722 -0.000001 -0.000006 4.362425 -16.181741 -7.603218 21.881720 0.000024 0.000002 -10.343996 -17.531373 18.623375 -3.318629 16.445843 -0.441708 -17.229342 0.058062 -6.461742 -12.007474 0.000011 0.000001 1.464790 25.191090 20.576592 -23.544720 0.000020 0.000013 -47.087591 -37.686884 81.877262 -21.881769 0.000022 -0.000011 -33.465308 3.153407 5.554686 8.355257 -0.000002 0.000000 29.399221 -26.298895 30.031085 -0.000009 -35.139305 -0.000026 -26.107146 42.802316 25.350599 -0.000006 -36.839561 -0.000019 0.292848 -14.307328 21.566358 0.000003 -5.430924 12.532882 -0.000002 0.000000 0.000002 -8.355255 -0.000003 0.000001 -39.798993 -27.984492 -6.194530 -0.000002 -35.139301 -0.000025 39.647011 20.636571 -37.210058 0.000013 -36.839561 -0.000025 1.973661 -7.260143 -35.690655 -0.000008 -5.430923 12.532872 0.000001 -0.000002 0.000001 
